<svg width="69" height="80" viewBox="0 0 69 80" fill="none" xmlns="http://www.w3.org/2000/svg">
<path d="M34.3288 80C29.5609 80 25.0956 79.0959 20.9329 77.2876C16.7677 75.4768 13.1441 73.0311 10.0621 69.9505C6.97764 66.8724 4.52885 63.2533 2.71579 59.0933C0.905262 54.9359 0 50.4762 0 45.7143H7.62861C7.62861 53.1429 10.2198 59.4438 15.4022 64.6171C20.582 69.793 26.8909 72.381 34.3288 72.381C41.7667 72.381 48.0755 69.793 53.2554 64.6171C58.4377 59.4438 61.0289 53.1429 61.0289 45.7143C61.0289 38.2857 58.4377 31.9835 53.2554 26.8076C48.0755 21.6343 41.7667 19.0476 34.3288 19.0476H33.7566L39.6688 24.9524L34.3288 30.4762L19.0715 15.2381L34.3288 0L39.6688 5.52381L33.7566 11.4286H34.3288C39.0966 11.4286 43.5632 12.334 47.7284 14.1448C51.8911 15.953 55.5147 18.3962 58.5992 21.4743C61.6812 24.5549 64.1287 28.174 65.9417 32.3314C67.7523 36.4914 68.6575 40.9524 68.6575 45.7143C68.6575 50.4762 67.7523 54.9359 65.9417 59.0933C64.1287 63.2533 61.6812 66.8724 58.5992 69.9505C55.5147 73.0311 51.8911 75.4768 47.7284 77.2876C43.5632 79.0959 39.0966 80 34.3288 80ZM22.8858 57.1429V40H17.1644V34.2857H28.6073V57.1429H22.8858ZM36.2359 57.1429C35.1552 57.1429 34.2499 56.7771 33.5201 56.0457C32.7878 55.3168 32.4216 54.4127 32.4216 53.3333V38.0952C32.4216 37.0159 32.7878 36.1105 33.5201 35.379C34.2499 34.6502 35.1552 34.2857 36.2359 34.2857H43.8645C44.9453 34.2857 45.8518 34.6502 46.5841 35.379C47.3139 36.1105 47.6788 37.0159 47.6788 38.0952V53.3333C47.6788 54.4127 47.3139 55.3168 46.5841 56.0457C45.8518 56.7771 44.9453 57.1429 43.8645 57.1429H36.2359ZM38.1431 51.4286H41.9574V40H38.1431V51.4286Z" fill="#F8F8F8"/>
</svg>
