<svg width="72" height="73" viewBox="0 0 72 73" fill="none" xmlns="http://www.w3.org/2000/svg">
<path d="M29.3522 2.20818e-06C24.2622 -0.0019865 19.2601 1.33935 14.8424 3.89087C10.4248 6.4424 6.74523 10.1154 4.16898 14.5453C1.59273 18.9752 0.209356 24.0079 0.156175 29.144C0.102994 34.2801 1.38185 39.3409 3.86581 43.8241L0.296099 53.2577C-0.00102311 54.0419 -0.0763918 54.894 0.0784009 55.7189C0.233194 56.5438 0.61206 57.3091 1.17273 57.9293C1.73341 58.5496 2.45384 59.0005 3.25365 59.2317C4.05347 59.4629 4.90121 59.4653 5.70231 59.2387L16.8695 56.0806C20.8251 57.9666 25.1503 58.9311 29.5252 58.9028C33.9001 58.8745 38.2127 57.8541 42.1441 55.917C46.0754 53.98 49.525 51.1759 52.2375 47.7121C54.95 44.2483 56.8562 40.2135 57.8149 35.906C58.7737 31.5986 58.7606 27.1288 57.7765 22.8272C56.7925 18.5255 54.8627 14.5022 52.1298 11.0547C49.397 7.60719 45.9311 4.82375 41.9884 2.91025C38.0457 0.99675 33.7272 0.00214581 29.3522 2.20818e-06ZM29.3163 17.6756C27.7088 17.9927 25.9487 19.0439 24.5657 21.5088C24.42 21.7676 24.2253 21.995 23.9926 22.1779C23.7599 22.3608 23.4937 22.4956 23.2093 22.5747C22.925 22.6538 22.628 22.6756 22.3353 22.6389C22.0425 22.6022 21.7599 22.5076 21.5034 22.3606C21.2469 22.2137 21.0215 22.0172 20.8403 21.7823C20.6591 21.5475 20.5254 21.2789 20.447 20.992C20.3687 20.705 20.3471 20.4053 20.3835 20.1099C20.4199 19.8146 20.5136 19.5293 20.6592 19.2705C22.6394 15.7544 25.4547 13.8196 28.4542 13.2306C31.2451 12.6982 34.1317 13.285 36.5007 14.8663C38.6739 16.3162 40.4296 18.686 40.4835 21.5269C40.5418 24.4948 38.7547 27.1726 35.4589 29.1391C33.2228 30.4712 32.3517 31.3774 31.979 31.98C31.6647 32.4875 31.5973 32.9497 31.5973 33.9827C31.5973 34.5836 31.3608 35.1598 30.9398 35.5847C30.5187 36.0096 29.9477 36.2483 29.3522 36.2483C28.7568 36.2483 28.1858 36.0096 27.7647 35.5847C27.3437 35.1598 27.1071 34.5836 27.1071 33.9827C27.1071 32.7503 27.17 31.2188 28.1713 29.5876C29.1143 28.0607 30.7262 26.7014 33.1779 25.2378C35.5802 23.8015 36.0157 22.4377 36.0022 21.6221C35.9843 20.6842 35.3646 19.5378 34.0266 18.6452C32.6412 17.7203 30.9546 17.3728 29.3208 17.6756H29.3163ZM30.4703 47.5758C29.5771 47.5758 28.7206 47.2178 28.089 46.5805C27.4575 45.9432 27.1026 45.0788 27.1026 44.1776C27.1026 43.2763 27.4575 42.4119 28.089 41.7746C28.7206 41.1373 29.5771 40.7793 30.4703 40.7793C31.3635 40.7793 32.22 41.1373 32.8516 41.7746C33.4832 42.4119 33.838 43.2763 33.838 44.1776C33.838 45.0788 33.4832 45.9432 32.8516 46.5805C32.22 47.2178 31.3635 47.5758 30.4703 47.5758ZM20.529 62.2564C23.2662 65.4727 26.6607 68.0532 30.4795 69.8208C34.2983 71.5884 38.4509 72.5012 42.6522 72.4965C47.111 72.4965 51.3453 71.4861 55.135 69.6737L66.2977 72.8318C67.0988 73.0584 67.9465 73.056 68.7463 72.8248C69.5462 72.5936 70.2666 72.1427 70.8273 71.5224C71.3879 70.9021 71.7668 70.1369 71.9216 69.312C72.0764 68.4871 72.001 67.635 71.7039 66.8508L68.1342 57.4172C70.5689 53.0258 71.8445 48.0768 71.8386 43.0448C71.8386 34.2546 68.0219 26.3615 61.9646 20.9651C62.6288 23.5747 62.983 26.2547 63.0198 28.9488C65.7499 32.9587 67.3484 37.816 67.3484 43.0448C67.3484 47.8024 66.0283 52.2473 63.7338 56.0307L63.159 56.9823L67.5145 68.4684L54.6725 64.8436L53.8868 65.2423C50.5191 66.9822 46.7024 67.9655 42.6522 67.9655C37.56 67.9733 32.5911 66.3853 28.4318 63.4208C25.761 63.3504 23.1081 62.9595 20.529 62.2564Z" fill="#262626"/>
</svg>
