<svg width="70" height="80" viewBox="0 0 70 80" fill="none" xmlns="http://www.w3.org/2000/svg">
<path d="M23.5879 57.1429V40H17.8553V34.2857H29.3206V57.1429H23.5879ZM36.9642 57.1429C35.8814 57.1429 34.9743 56.7771 34.2431 56.0457C33.5093 55.3168 33.1424 54.4127 33.1424 53.3333V38.0952C33.1424 37.0159 33.5093 36.1105 34.2431 35.379C34.9743 34.6502 35.8814 34.2857 36.9642 34.2857H44.6078C45.6906 34.2857 46.5989 34.6502 47.3327 35.379C48.0639 36.1105 48.4296 37.0159 48.4296 38.0952V53.3333C48.4296 54.4127 48.0639 55.3168 47.3327 56.0457C46.5989 56.7771 45.6906 57.1429 44.6078 57.1429H36.9642ZM38.8751 51.4286H42.6969V40H38.8751V51.4286ZM35.0533 80C30.2761 80 25.802 79.0959 21.6312 77.2876C17.4578 75.4768 13.8271 73.0311 10.7391 69.9505C7.64855 66.8724 5.19496 63.2533 3.37834 59.0933C1.56426 54.9359 0.657227 50.4762 0.657227 45.7143C0.657227 40.9524 1.56426 36.4914 3.37834 32.3314C5.19496 28.174 7.64855 24.5549 10.7391 21.4743C13.8271 18.3962 17.4578 15.953 21.6312 14.1448C25.802 12.334 30.2761 11.4286 35.0533 11.4286H35.6266L29.7028 5.52381L35.0533 0L50.3404 15.2381L35.0533 30.4762L29.7028 24.9524L35.6266 19.0476H35.0533C27.6008 19.0476 21.2796 21.6343 16.0896 26.8076C10.8971 31.9835 8.3008 38.2857 8.3008 45.7143C8.3008 53.1429 10.8971 59.4438 16.0896 64.6171C21.2796 69.793 27.6008 72.381 35.0533 72.381C42.5058 72.381 48.827 69.793 54.017 64.6171C59.2095 59.4438 61.8058 53.1429 61.8058 45.7143H69.4494C69.4494 50.4762 68.5423 54.9359 66.7283 59.0933C64.9116 63.2533 62.4593 66.8724 59.3713 69.9505C56.2808 73.0311 52.6501 75.4768 48.4792 77.2876C44.3058 79.0959 39.8305 80 35.0533 80Z" fill="#F8F8F8"/>
</svg>
