<svg width="24" height="60" viewBox="0 0 24 60" fill="none" xmlns="http://www.w3.org/2000/svg">
<path d="M18.3983 0C16.9127 0 15.4878 0.590175 14.4373 1.64069C13.3868 2.69121 12.7966 4.11602 12.7966 5.60168C12.7966 7.08734 13.3868 8.51215 14.4373 9.56267C15.4878 10.6132 16.9127 11.2034 18.3983 11.2034C19.884 11.2034 21.3088 10.6132 22.3593 9.56267C23.4098 8.51215 24 7.08734 24 5.60168C24 4.11602 23.4098 2.69121 22.3593 1.64069C21.3088 0.590175 19.884 0 18.3983 0ZM17.0539 17.8134C12.6099 18.1868 0.472931 27.859 0.472931 27.859C-0.27396 28.4192 -0.0498906 28.3819 0.547622 29.4275C1.14514 30.4358 1.07045 30.5105 1.77999 30.025C2.52688 29.5395 3.75925 28.7553 5.8132 27.4856C13.7302 22.4067 7.08292 34.1329 3.68457 53.8882C2.34016 63.6725 11.1535 58.6309 13.4315 57.1372C15.6722 55.6807 21.6846 51.5355 22.2822 51.1247C23.1037 50.5645 22.5062 50.1164 21.8714 49.1828C21.4232 48.5479 20.9751 48.996 20.9751 48.996C18.5477 50.6019 14.1037 53.9629 13.5062 51.8342C12.7966 49.7056 17.3527 35.1039 19.8548 25.0582C20.2655 22.6681 21.3859 17.4399 17.0539 17.8134Z" fill="#262626"/>
</svg>
