<svg width="52" height="52" viewBox="0 0 52 52" fill="none" xmlns="http://www.w3.org/2000/svg">
<path d="M28.3324 37.4439H24V20.7331H28.3324V37.4439ZM28.3324 18.8764H24V14.5439H28.3324V18.8764Z" fill="#2E4083"/>
<path d="M26.1148 8.97409C16.5216 8.97409 8.78511 16.7105 8.78511 26.3038C8.78511 35.897 16.5216 43.6334 26.1148 43.6334C35.708 43.6334 43.4445 35.897 43.4445 26.3038C43.4445 16.7105 35.708 8.97409 26.1148 8.97409ZM26.1148 46.4185C14.9743 46.4185 6 37.4443 6 26.3038C6 15.1633 14.9743 6.18896 26.1148 6.18896C37.2553 6.18896 46.2296 15.1633 46.2296 26.3038C46.2296 37.4443 37.2553 46.4185 26.1148 46.4185Z" fill="#2E4083"/>
<rect x="0.5" y="0.5" width="51" height="51" stroke="#262626"/>
</svg>
