<svg width="89" height="82" viewBox="0 0 89 82" fill="none" xmlns="http://www.w3.org/2000/svg">
<path d="M87.6734 7.52843C87.2697 7.20636 86.7975 6.98107 86.2931 6.86984C85.7888 6.75862 85.2656 6.76442 84.7638 6.8868L58.5775 13.4314L32.3483 0.299426H32.3055L31.9632 0.171101H31.8776L31.5781 0.0855507H31.4498L31.1502 0H29.995L2.61052 6.84403C1.85675 7.02816 1.18792 7.46285 0.713689 8.07683C0.239458 8.69081 -0.012035 9.44765 0.000442922 10.2233V71.8195C-0.00455922 72.3411 0.112831 72.8566 0.34319 73.3246C0.57355 73.7926 0.910461 74.2001 1.32688 74.5143C1.92397 74.9857 2.66268 75.2419 3.4235 75.2415L4.27926 75.156L30.4228 68.6114L56.652 81.7433H56.6948L56.9943 81.8717H57.0371L57.3794 82H59.0481L86.4326 75.156C87.1712 74.9653 87.825 74.5335 88.2901 73.929C88.7552 73.3246 89.005 72.5821 88.9998 71.8195V10.2233C89.0049 9.70169 88.8875 9.18621 88.6571 8.7182C88.4267 8.2502 88.0898 7.8427 87.6734 7.52843ZM6.84655 12.8753L27.3849 7.74231V62.3234L6.84655 67.4564V12.8753ZM54.7693 73.1455L34.231 62.8795V8.89724L54.7693 19.1633V73.1455ZM82.1537 69.1674L61.6154 74.3005V19.7194L82.1537 14.5863V69.1674Z" fill="#F8F8F8"/>
</svg>
