<svg width="83" height="80" viewBox="0 0 83 80" fill="none" xmlns="http://www.w3.org/2000/svg">
<path d="M50.8828 80V70.6286C57.7601 68.6476 63.3002 64.8381 67.503 59.2C71.7058 53.5619 73.8072 47.1619 73.8072 40C73.8072 32.8381 71.7058 26.4381 67.503 20.8C63.3002 15.1619 57.7601 11.3524 50.8828 9.37143V0C60.3582 2.13333 68.0761 6.91352 74.0364 14.3406C79.9968 21.7707 82.9769 30.3238 82.9769 40C82.9769 49.6762 79.9968 58.2278 74.0364 65.6549C68.0761 73.085 60.3582 77.8667 50.8828 80ZM0.449219 53.8286V26.4H18.7887L41.7131 3.54286V76.6857L18.7887 53.8286H0.449219ZM50.8828 58.4V21.6C54.4743 23.2762 57.2833 25.7905 59.3098 29.1429C61.3333 32.4952 62.345 36.1524 62.345 40.1143C62.345 44 61.3333 47.5992 59.3098 50.912C57.2833 54.2278 54.4743 56.7238 50.8828 58.4Z" fill="#F8F8F8"/>
</svg>
