<svg width="89" height="89" viewBox="0 0 89 89" fill="none" xmlns="http://www.w3.org/2000/svg">
<path d="M82.7071 89L69.1098 75.4028C67.237 76.6014 65.2517 77.6323 63.154 78.4953C61.0564 79.3553 58.8838 80.0476 56.6364 80.572V71.3573C57.6852 70.9827 58.716 70.6082 59.7289 70.2336C60.7388 69.859 61.6932 69.4095 62.5922 68.8851L47.6465 53.9394V77.3131L25.1717 54.8384H7.19192V27.8687H21.5758L0 6.29293L6.29293 0L89 82.7071L82.7071 89ZM81.8081 62.9293L75.2904 56.4116C76.564 54.0892 77.5199 51.6545 78.1582 49.1073C78.7935 46.5602 79.1111 43.9381 79.1111 41.2412C79.1111 34.1991 77.0509 27.9061 72.9306 22.3624C68.8102 16.8186 63.3788 13.0728 56.6364 11.125V1.91035C65.9259 4.008 73.4924 8.70822 79.3359 16.011C85.1793 23.3168 88.101 31.7269 88.101 41.2412C88.101 45.2117 87.5586 49.0324 86.4738 52.7033C85.3861 56.3742 83.8308 59.7828 81.8081 62.9293ZM66.75 47.8712L56.6364 37.7576V23.149C60.1574 24.7971 62.9113 27.2694 64.8981 30.5657C66.8819 33.862 67.8737 37.4579 67.8737 41.3535C67.8737 42.4773 67.7808 43.583 67.595 44.6708C67.4063 45.7556 67.1246 46.8224 66.75 47.8712ZM47.6465 28.7677L35.9596 17.0808L47.6465 5.39394V28.7677Z" fill="#F8F8F8"/>
</svg>
