<svg width="62" height="43" viewBox="0 0 62 43" fill="none" xmlns="http://www.w3.org/2000/svg">
<path d="M30.8371 0C25.4977 0 21.1692 5.11021 21.1692 11.414C21.1692 15.7859 23.2512 19.5828 26.3084 21.5L22.7632 23.1615L13.3289 27.5861C12.4175 28.047 11.9626 28.8284 11.9626 29.9344V40.4413C12.0376 41.7549 12.8171 42.9793 14.0808 43H47.6445C49.0872 42.8731 49.8171 41.698 49.8313 40.4413V29.9344C49.8313 28.8284 49.3764 28.047 48.465 27.5861L39.3723 23.1615L35.5935 21.3511C38.5253 19.3908 40.505 15.6759 40.505 11.4141C40.505 5.11022 36.1765 0 30.8371 0ZM15.2429 4.01377C12.9451 4.10202 11.124 5.10745 9.74051 6.70948C8.21014 8.63831 7.46408 10.9284 7.44966 13.2065C7.54364 16.5753 9.03423 19.7644 11.6878 21.4325L1.09342 26.411C0.36425 26.6875 0 27.3326 0 28.3464V36.7789C0.0569367 37.8972 0.63116 38.8371 1.70784 38.8532H8.74918V29.9344C8.86569 27.55 9.97301 25.6226 11.9626 24.6821L19.0021 21.2956C19.5489 20.973 20.0732 20.5345 20.5744 19.9815C17.672 15.453 17.269 10.0291 19.1395 5.25844C17.9229 4.50552 16.5557 4.02166 15.2429 4.01377ZM46.6865 4.01377C45.1838 4.04559 43.7952 4.60515 42.6544 5.39538C44.474 10.2092 43.9721 15.6365 41.2862 19.8425C41.8787 20.5338 42.4954 21.0639 43.1334 21.4326L49.9 24.6821C51.9613 25.8253 53.0243 27.7697 53.0447 29.9345V38.8533H60.2902C61.4818 38.7493 61.9897 37.7882 62 36.7789V28.3465C62 27.4248 61.6357 26.7798 60.9066 26.411L50.4476 21.3631C53.16 19.3407 54.522 16.3098 54.5484 13.2065C54.4762 10.7503 53.7343 8.46965 52.2575 6.70948C50.7144 5.01675 48.8005 4.03169 46.6865 4.01377Z" fill="#262626"/>
</svg>
